<svg width="106" height="106" viewBox="0 0 106 106" fill="none" xmlns="http://www.w3.org/2000/svg">
<g clip-path="url(#clip0_5_600)">
<path d="M32.4143 44.5423L52.9995 23.9576L73.5953 44.5529L85.5733 32.5749L52.9995 0L20.4368 32.5643L32.4143 44.5423ZM0.000305176 52.9984L11.9787 41.02L23.9563 52.9976L11.978 64.9759L0.000305176 52.9984ZM32.4143 61.4577L52.9995 82.0424L73.5947 61.4477L85.5791 73.4193L85.5733 73.4257L52.9995 106L20.4357 73.4368L20.4188 73.4198L32.4143 61.4577ZM82.0447 53.0049L94.0231 41.0266L106.001 53.0042L94.0223 64.9826L82.0447 53.0049Z" fill="#F3BA2F"/>
<path d="M65.1487 52.9937H65.154L52.9995 40.8392L44.017 49.8216H44.0165L42.9846 50.8541L40.8561 52.9831L40.8391 52.9995L40.8561 53.017L52.9995 65.1609L65.154 53.0064L65.1598 52.9995L65.1487 52.9937Z" fill="#F3BA2F"/>
</g>
<defs>
<clipPath id="clip0_5_600">
<rect width="106" height="106" fill="white"/>
</clipPath>
</defs>
</svg>
