<svg width="106" height="106" viewBox="0 0 106 106" fill="none" xmlns="http://www.w3.org/2000/svg">
<g clip-path="url(#clip0_5_604)">
<path d="M24.7319 16.341L53 0L81.2681 16.341L70.6681 22.0819L53 11.9229L34.891 22.0819L24.7319 16.341ZM80.8229 36.659L70.6638 30.9181L53 41.0771L34.891 30.9181L24.7319 36.659V48.5862L42.4 58.7452V79.5042L52.559 85.6862L62.7181 79.5042V59.1862L80.3862 49.0271V36.659H80.8229ZM80.8229 69.341V57.4181L70.6681 63.6V75.0819L80.8229 69.341ZM88.3319 73.3181L70.6638 83.4771V95.4L98.9319 79.059V46.3771L88.3319 53V73.3181ZM78.1771 26.5L88.3362 32.6819V44.609L98.4952 38.4271V26.5L88.3362 20.3181L78.1771 26.5ZM42.4 87.891V99.8139L52.559 105.996L62.7181 99.8139V87.891L52.559 94.0729L42.4 87.891ZM24.7319 69.341L34.891 75.0819V63.159L24.7319 56.9771V69.341ZM42.4 26.5L52.559 32.6819L63.159 26.5L53 20.3181L42.4 26.5ZM17.2229 32.6819L27.8229 26.5L17.2229 20.3181L7.06808 26.5V38.4229L17.2271 44.6048V32.6819H17.2229ZM17.2229 53L7.06384 46.8181V79.5L35.3319 95.841V83.9181L17.6638 73.759V53H17.2229Z" fill="#F0B90B"/>
</g>
<defs>
<clipPath id="clip0_5_604">
<rect width="106" height="106" fill="white"/>
</clipPath>
</defs>
</svg>
