<svg width="52" height="52" viewBox="0 0 52 52" fill="none" xmlns="http://www.w3.org/2000/svg">
<path d="M47.8888 10.2294L45.8006 23.4244C45.5642 24.987 44.7409 26.4007 43.4985 27.3775C42.2561 28.3542 40.688 28.8205 39.1138 28.6813C37.7883 28.5262 36.5514 27.9367 35.5961 27.0049C34.6407 26.0731 34.0206 24.8513 33.8325 23.5301C33.8015 23.2985 33.6973 23.0829 33.535 22.9148C33.3727 22.7467 33.161 22.6349 32.9306 22.5957C32.6448 22.5528 32.3534 22.6227 32.1181 22.7907C32.0024 22.8733 31.9045 22.9786 31.8305 23.1001C31.7565 23.2216 31.7079 23.3568 31.6875 23.4976L29.0794 39.9669C28.8593 41.5112 28.0621 42.9148 26.8484 43.8947C25.6347 44.8747 24.0948 45.3583 22.5388 45.2482C21.416 45.1485 20.3439 44.7354 19.4446 44.0559C18.5453 43.3764 17.8551 42.4579 17.4525 41.4051C17.2588 40.9402 16.9187 40.5512 16.4837 40.2972C16.0488 40.0432 15.5429 39.9382 15.0428 39.9979C14.5427 40.0577 14.0758 40.279 13.713 40.6283C13.3502 40.9776 13.1112 41.4357 13.0325 41.9332L12.7075 43.9644C12.5432 45.0051 12.0124 45.9529 11.2109 46.6367C10.4094 47.3206 9.38987 47.6955 8.33627 47.6938C7.96048 47.6932 7.58634 47.6441 7.22314 47.5476C4.86689 46.9463 3.65627 44.5819 4.14377 41.5432L5.67939 31.8338C5.84402 30.7385 6.40304 29.741 7.25137 29.0288C8.09971 28.3166 9.17896 27.9388 10.2863 27.9663C11.1553 28.01 11.9922 28.3094 12.6917 28.8269C13.3913 29.3443 13.9226 30.0569 14.2188 30.8751C14.3387 31.2523 14.5596 31.5895 14.8575 31.8501C15.1554 32.1108 15.519 32.285 15.9088 32.3538C16.1843 32.3997 16.4662 32.3904 16.7381 32.3263C17.01 32.2623 17.2664 32.1448 17.4925 31.9807C17.7186 31.8167 17.9097 31.6093 18.0549 31.3706C18.2001 31.132 18.2964 30.8669 18.3381 30.5907L21.4256 11.1394C21.7026 9.54272 22.6014 8.12097 23.9249 7.18582C25.2484 6.25067 26.8887 5.87843 28.4863 6.15068C31.5575 6.63819 33.3288 8.81568 33.3613 12.1226C33.3632 12.3057 33.4156 12.4847 33.5125 12.64C33.6095 12.7954 33.7473 12.921 33.9109 13.0033C34.0745 13.0855 34.2576 13.1211 34.4401 13.1062C34.6226 13.0913 34.7975 13.0265 34.9456 12.9188C35.0524 12.8429 35.1427 12.7462 35.2111 12.6345C35.2795 12.5228 35.3246 12.3984 35.3438 12.2688L35.9369 8.55568C36.1674 6.97792 36.9984 5.55018 38.2566 4.57061C39.5147 3.59105 41.1027 3.1354 42.6888 3.29881C43.4909 3.39963 44.2645 3.66078 44.9636 4.06671C45.6627 4.47265 46.2729 5.01507 46.7581 5.6617C47.2433 6.30833 47.5934 7.04595 47.7876 7.83066C47.9819 8.61538 48.0163 9.43115 47.8888 10.2294ZM43.4119 40.1619C42.5623 40.1611 41.7315 40.4124 41.0247 40.8839C40.3179 41.3555 39.7669 42.0261 39.4414 42.8109C39.1159 43.5957 39.0305 44.4594 39.1961 45.2927C39.3616 46.1261 39.7707 46.8916 40.3715 47.4924C40.9723 48.0931 41.7378 48.5022 42.5711 48.6678C43.4044 48.8333 44.2682 48.7479 45.053 48.4224C45.8378 48.0969 46.5084 47.5459 46.9799 46.8391C47.4514 46.1323 47.7027 45.3016 47.7019 44.4519C47.6997 43.3148 47.2471 42.2249 46.443 41.4208C45.6389 40.6168 44.549 40.1641 43.4119 40.1619ZM41.3806 34.3769C41.3814 33.8089 41.2138 33.2533 40.8988 32.7806C40.5839 32.3078 40.1359 31.939 39.6114 31.7209C39.0868 31.5027 38.5094 31.4451 37.9521 31.5551C37.3948 31.6651 36.8826 31.938 36.4804 32.3391C36.0781 32.7402 35.8039 33.2516 35.6923 33.8086C35.5806 34.3655 35.6367 34.9431 35.8534 35.4683C36.07 35.9934 36.4375 36.4425 36.9094 36.7588C37.3813 37.075 37.9363 37.2443 38.5044 37.2451C39.2654 37.2436 39.9949 36.9412 40.5337 36.4039C41.0725 35.8665 41.377 35.1379 41.3806 34.3769ZM13.8125 15.5107C14.6618 15.5115 15.4923 15.2604 16.1989 14.7893C16.9055 14.3181 17.4565 13.648 17.7822 12.8636C18.108 12.0793 18.1938 11.216 18.0289 10.3829C17.864 9.54976 17.4558 8.78424 16.8558 8.18314C16.2558 7.58203 15.4911 7.17234 14.6583 7.00587C13.8255 6.83939 12.962 6.92361 12.1771 7.24787C11.3921 7.57214 10.721 8.12189 10.2485 8.82759C9.77595 9.5333 9.52332 10.3633 9.52252 11.2126C9.52295 12.351 9.9748 13.4427 10.779 14.2485C11.5832 15.0542 12.6741 15.5081 13.8125 15.5107ZM8.91314 24.1719C9.48201 24.1719 10.0381 24.0032 10.5111 23.6872C10.9841 23.3712 11.3528 22.9219 11.5705 22.3964C11.7881 21.8708 11.8451 21.2925 11.7341 20.7346C11.6231 20.1766 11.3492 19.6641 10.947 19.2619C10.5447 18.8596 10.0322 18.5857 9.47427 18.4747C8.91633 18.3637 8.33802 18.4207 7.81245 18.6384C7.28688 18.8561 6.83767 19.2247 6.52163 19.6977C6.20558 20.1707 6.03689 20.7268 6.03689 21.2957C6.03668 21.6735 6.11093 22.0476 6.2554 22.3966C6.39987 22.7457 6.61172 23.0629 6.87885 23.33C7.14598 23.5971 7.46314 23.809 7.8122 23.9534C8.16126 24.0979 8.53537 24.1721 8.91314 24.1719Z" fill="url(#paint0_linear_5_632)"/>
<defs>
<linearGradient id="paint0_linear_5_632" x1="4.03733" y1="26.0009" x2="47.966" y2="26.0009" gradientUnits="userSpaceOnUse">
<stop stop-color="#FE8515"/>
<stop offset="1" stop-color="#FFB36C"/>
</linearGradient>
</defs>
</svg>
