<svg width="88" height="88" viewBox="0 0 88 88" fill="none" xmlns="http://www.w3.org/2000/svg">
<path d="M88 44C88 68.3005 68.3005 88 44 88C19.6995 88 0 68.3005 0 44C0 19.6995 19.6995 0 44 0C68.3005 0 88 19.6995 88 44Z" fill="#FF00F3"/>
<path d="M78.8333 44C78.8333 63.2379 63.2379 78.8333 44 78.8333C24.762 78.8333 9.16663 63.2379 9.16663 44C9.16663 24.7621 24.762 9.16667 44 9.16667C63.2379 9.16667 78.8333 24.7621 78.8333 44Z" fill="#BD10B5"/>
<path d="M26.773 26.1816C26.773 30.9211 23.2929 34.7632 19 34.7632V53.1279C23.2929 53.1279 26.773 56.97 26.773 61.7095C26.773 61.8824 26.7683 62.0541 26.7592 62.2244H39.5206C39.5206 62.2244 32.9913 56.4405 32.9913 43.9455C32.9913 31.4506 39.5206 25.6667 39.5206 25.6667H26.7592C26.7683 25.837 26.773 26.0087 26.773 26.1816Z" fill="#FF00F3"/>
<path d="M61.2276 26.1816C61.2276 30.9211 64.7077 34.7632 69.0006 34.7632V53.1279C64.7077 53.1279 61.2276 56.97 61.2276 61.7095C61.2276 61.8824 61.2323 62.0541 61.2414 62.2244H48.48C48.48 62.2244 55.0093 56.4405 55.0093 43.9455C55.0093 31.4506 48.48 25.6667 48.48 25.6667H61.2414C61.2323 25.837 61.2276 26.0087 61.2276 26.1816Z" fill="#FF00F3"/>
<path d="M10.0571 39.7876V43.9874C10.0571 44.9331 10.1404 45.2668 10.9464 45.2668H11.3077C12.0859 45.2668 12.1971 44.9331 12.1971 43.9874V39.7876C12.1971 38.842 12.0859 38.5082 11.3077 38.5082H10.9464C10.1404 38.5082 10.0571 38.842 10.0571 39.7876ZM13.5033 52.6652V52.4983C13.5033 51.8029 13.142 51.6917 12.3638 51.6917H10.3906C9.66796 51.6917 9.36224 51.9142 9.36224 52.5539V52.693C9.36224 53.4717 9.72354 53.583 10.4184 53.583H12.3638C13.142 53.583 13.5033 53.4717 13.5033 52.6652ZM9.52899 48.3819V48.4097C9.52899 48.9938 9.8625 49.1329 10.4739 49.1329H12.3916C14.5039 49.1329 15.8101 49.4944 15.8101 51.9142V52.3314C15.8101 54.6677 14.893 55.363 12.4194 55.363H9.72354C8.25053 55.363 7.33337 54.8068 7.33337 53.1936V52.693C7.33337 51.8586 7.63909 51.3579 8.25053 51.0798C7.77806 50.6626 7.6113 50.0229 7.6113 49.2441V49.0216C7.6113 48.076 7.91702 47.5197 8.47287 47.2138C7.58351 46.7687 7.33337 45.8231 7.33337 44.043V39.7042C7.33337 36.9785 7.9726 36.1997 10.5017 36.1997H11.5579C13.0031 36.1997 13.8369 36.4778 14.2815 37.2566C14.3649 36.6447 14.6984 36.1997 15.3932 36.1997H15.8379V38.7307H15.3654C15.0597 38.7307 14.9208 38.9532 14.9208 39.426V44.043C14.9208 46.7687 14.2537 47.5753 11.7524 47.5753H10.335C9.75133 47.5753 9.52899 47.77 9.52899 48.3819Z" fill="white"/>
<path d="M17.1173 46.6019C17.1173 44.6549 17.5063 43.598 19.563 42.8193C21.8698 41.9292 22.0921 41.8458 22.0921 40.0936V40.0658C22.0921 39.1201 21.981 38.7863 21.2028 38.7863H20.8415C20.0633 38.7863 19.9521 39.1201 19.9521 40.0658V41.5677H17.3118V39.7042C17.3118 36.9785 17.951 36.1997 20.4524 36.1997H21.7586C24.26 36.1997 24.927 36.9785 24.927 39.7042V49.1051C24.927 49.9951 24.927 50.7739 25.1493 51.6917H22.4534C22.3145 51.3858 22.2311 50.8295 22.2033 49.9395C21.9532 51.1354 21.3139 51.8308 19.8687 51.8308H19.2851C17.5897 51.8308 17.1173 51.0798 17.1173 49.0772V46.6019ZM22.0921 47.7422V44.2377C21.842 44.3768 21.5919 44.4881 21.2862 44.5993C20.0911 45.0443 19.9243 45.4893 19.9243 46.6853V47.9925C19.9243 48.9104 20.0355 49.2441 20.7859 49.2441H21.1194C21.842 49.2441 22.0921 48.7157 22.0921 47.7422Z" fill="white"/>
<path d="M29.9305 51.6917H27.0957V36.3388H29.7638V38.2579C29.9861 36.9785 30.6253 36.1997 32.1262 36.1997H32.6264C33.9605 36.1997 34.5441 36.6725 34.7109 37.8407C35.0166 36.8116 35.6558 36.1997 36.9899 36.1997H37.5179C39.2133 36.1997 39.6857 36.9507 39.6857 38.9532V51.6917H36.8509V40.0379C36.8509 39.1201 36.7675 38.7863 36.0171 38.7863H35.7948C35.0722 38.7863 34.7942 39.3148 34.7942 40.2883V51.6917H31.9872V40.0379C31.9872 39.1201 31.876 38.7863 31.1256 38.7863H30.9033C30.1807 38.7863 29.9305 39.3148 29.9305 40.2883V51.6917Z" fill="white"/>
<path d="M46.7373 47.9647V46.4072H49.4054V48.2985C49.4054 51.0242 48.7383 51.8308 46.2648 51.8308H44.903C42.4016 51.8308 41.7624 51.0242 41.7624 48.2985V39.7042C41.7624 36.9785 42.4016 36.1997 44.903 36.1997H46.2648C48.7383 36.1997 49.4054 36.9785 49.4054 39.7042V44.8774H44.5694V47.9647C44.5694 48.9104 44.6806 49.2441 45.4866 49.2441H45.8479C46.6261 49.2441 46.7373 48.9104 46.7373 47.9647ZM44.5694 40.0658V42.5133H46.7373V40.0658C46.7373 39.1201 46.6261 38.7863 45.8479 38.7863H45.4866C44.6806 38.7863 44.5694 39.1201 44.5694 40.0658Z" fill="white"/>
<path d="M54.6629 32.2224V47.4641C54.6629 48.5488 54.7463 48.8826 55.6635 48.8826H56.1082C57.0253 48.8826 57.1087 48.5488 57.1087 47.4641V32.2224H60.0547V47.8813C60.0547 50.9407 59.3321 51.8308 56.5251 51.8308H55.0798C52.2728 51.8308 51.5224 50.9407 51.5224 47.8813V32.2224H54.6629Z" fill="white"/>
<path d="M67.3681 47.4641V46.4072C67.3681 44.7662 66.8678 44.2099 64.9779 42.5968C62.8657 40.7611 62.1153 39.7876 62.1153 37.0897V36.0328C62.1153 32.9734 62.8379 32.0833 65.6449 32.0833H66.979C69.7861 32.0833 70.5087 32.9734 70.5087 36.0328V38.7307H67.5626V36.45C67.5626 35.3653 67.4515 35.0315 66.5621 35.0315H66.2286C65.3114 35.0315 65.2281 35.3653 65.2281 36.3944V37.0619C65.2281 38.7029 65.7283 39.2314 67.6182 40.8723C69.7305 42.7358 70.5087 43.6815 70.5087 46.3794V47.8813C70.5087 50.9407 69.7583 51.8308 66.979 51.8308H65.6449C62.8379 51.8308 62.1153 50.9407 62.1153 47.8813V44.6271H65.0335V47.4641C65.0335 48.5488 65.1169 48.8826 66.034 48.8826H66.3953C67.2847 48.8826 67.3681 48.5488 67.3681 47.4641Z" fill="white"/>
<path d="M72.5842 51.6917V32.2224H77.7536C80.5607 32.2224 81.3111 33.1124 81.3111 36.1719V47.7422C81.3111 50.8017 80.5607 51.6917 77.7536 51.6917H72.5842ZM75.7248 48.7435H77.17C78.0871 48.7435 78.1705 48.4097 78.1705 47.325V36.5891C78.1705 35.5044 78.0871 35.1706 77.17 35.1706H75.7248V48.7435Z" fill="white"/>
</svg>
